<?xml version="1.0" encoding="UTF-8"?>
<svg id="b" data-name="Layer 2" xmlns="http://www.w3.org/2000/svg" width="866.569" height="737.392" viewBox="0 0 866.569 737.392">
  <g id="c" data-name="Layer 1">
    <g>
      <g>
        <path d="m570.039,56.452h-100.85c-16.56,0-30,13.44-30,30v51.52l-253.42,70.31c-12.99,3.6-21.98,15.43-21.98,28.9v287c0,14.37,10.2,26.73,24.32,29.45l251.08,48.43v72.85c0,16.56,13.44,30,30,30h100.85c16.57,0,30-13.44,30-30V86.452c0-16.56-13.43-30-30-30Zm-156.78,150.97l63.95-17.74c12.99-3.6,21.98-15.42,21.98-28.9v-44.33h40.85v528.46h-40.85v-67.62c0-14.37-10.2-26.73-24.31-29.45l-61.62-11.89V207.422Zm-156.77,298.3l-32.7-6.31v-239.42l32.7-9.07v254.8Zm73.16,14.11l-33.68-6.5V239.962l33.68-9.34v289.21Z" fill="#f6f6f6"/>
        <path d="m712.679,160.782v416.51c0,16.57-13.43,30-30,30s-30-13.43-30-30V160.782c0-16.57,13.43-30,30-30s30,13.43,30,30Z" fill="#f6f6f6"/>
        <path d="m805.59,86.452v565.17c0,16.56-13.44,30-30,30s-30-13.44-30-30V86.452c0-16.56,13.43-30,30-30s30,13.44,30,30Z" fill="#f6f6f6"/>
      </g>
      <g>
        <line x1="40.005" y1="544.869" x2="826.502" y2="40.005" fill="none"/>
        <path d="m40.043,584.874c-13.167,0-26.059-6.494-33.699-18.397-11.934-18.59-6.537-43.335,12.054-55.27L804.894,6.343c18.593-11.934,43.335-6.537,55.271,12.054,11.934,18.591,6.536,43.336-12.055,55.27L61.613,578.53c-6.688,4.293-14.172,6.344-21.57,6.344Z" fill="none"/>
      </g>
      <g>
        <line x1="40.068" y1="192.524" x2="826.565" y2="697.387" fill="none"/>
        <path d="m826.526,737.392c-7.398,0-14.881-2.05-21.569-6.344L18.46,226.185C-.131,214.252-5.527,189.506,6.406,170.916c11.935-18.59,36.679-23.986,55.27-12.054l786.496,504.863c18.591,11.935,23.987,36.68,12.054,55.27-7.64,11.902-20.534,18.397-33.699,18.397Z" fill="none"/>
      </g>
    </g>
  </g>
</svg>