<?xml version="1.0" encoding="UTF-8"?>
<svg fill="white" id="b" data-name="Layer 2" xmlns="http://www.w3.org/2000/svg" width="1882.806" height="1080.293" viewBox="0 0 1882.806 1080.293">
  <g id="c" data-name="Layer 1">
    <g>
      <path d="m0,1062.75l1.462-106.713V124.256L0,17.542h173.958c147.645,0,222.198,102.328,222.198,260.206v2.924c0,114.023-33.622,191.499-93.557,230.969v5.847c67.244,36.546,109.637,119.87,109.637,238.278v2.925c0,198.809-83.324,304.06-235.354,304.06H0ZM141.797,453.167h32.161c61.396,0,80.4-67.244,80.4-160.801v-2.924c0-90.633-26.313-144.721-92.096-144.721h-20.466v308.447Zm23.39,482.404c80.4,0,100.866-64.32,100.866-182.729v-2.923c0-106.714-24.851-168.11-90.633-168.11h-33.622v353.763h23.39Z"/>
      <path d="m584.729,1062.75h-144.721L574.496,17.542h194.424l133.027,1045.209h-143.26l-24.851-233.894h-124.256l-24.852,233.894Zm38.008-363.996h97.942l-33.622-320.141c-4.385-46.779-10.233-137.412-11.694-172.496h-5.846c-2.925,35.084-8.771,125.717-13.158,172.496l-33.622,320.141Z"/>
      <path d="m1219.159,703.139h143.26v4.386c0,194.424-26.314,267.515-68.707,317.216-30.699,35.085-76.015,55.551-135.95,55.551s-105.252-20.466-135.95-55.551c-42.393-49.701-65.782-118.408-65.782-315.755v-337.683c0-197.347,23.389-266.053,65.782-315.756,30.699-35.083,76.015-55.549,135.95-55.549s105.252,20.466,135.95,55.549c40.931,48.241,65.782,112.561,65.782,293.828v4.386h-143.258v-13.157c0-133.026-1.462-204.656-58.474-204.656s-58.474,71.63-58.474,204.656v399.08c0,133.027,1.463,204.657,58.474,204.657s61.397-73.091,61.397-207.58v-33.623Z"/>
      <path d="m1875.497,17.542l-137.412,409.313,144.721,635.896h-150.568l-95.02-437.087-49.701,119.869v210.505l1.462,106.713h-143.26l1.462-106.713V124.256l-1.462-106.714h143.26l-1.462,106.714v229.507c0,29.236-1.462,70.167-2.925,97.942h5.848l26.314-90.633,106.713-343.53h152.029Z"/>
    </g>
  </g>
</svg>