<?xml version="1.0" encoding="UTF-8"?>
<svg fill="white" id="a" data-name="Layer 1" xmlns="http://www.w3.org/2000/svg" width="1922.5" height="298.542" viewBox="0 0 1922.5 298.542">
  <path d="m39.186,161.188v103.015l.404,29.491H0l.404-29.491V34.338L0,4.848h95.339v35.146h-56.153v84.836h44.438v36.358h-44.438Z"/>
  <path d="m158.355,4.848l-.404,29.491v229.865l.404,29.491h-39.59l.404-29.491V34.338l-.404-29.491h39.59Z"/>
  <path d="m197.537,293.694l.404-29.491V34.338l-.404-29.491h39.59l-.404,29.491v224.21h51.71v35.146h-90.895Z"/>
  <path d="m360.744,39.994v224.21l.404,29.491h-39.59l.404-29.491V39.994h-36.358V4.848h111.498v35.146h-36.358Z"/>
  <path d="m462.14,161.188v97.36h57.77v35.146h-96.955l.404-29.491V34.338l-.404-29.491h95.339v35.146h-56.153v84.836h44.438v36.358h-44.438Z"/>
  <path d="m638.676,157.553l27.875,136.141h-41.609l-23.028-122.81h-12.119v93.32l.404,29.491h-39.59l.404-29.491V34.338l-.404-29.491h50.093c49.689,0,61.809,37.57,61.809,83.22v.808c0,28.683-6.059,53.729-23.835,68.677Zm-48.882-21.007h4.848c23.835,0,27.471-21.007,27.471-47.67v-.808c0-26.663-4.443-48.074-25.855-48.074h-6.464v96.552Z"/>
  <path d="m734.82,161.188v103.015l.404,29.491h-39.59l.404-29.491V34.338l-.404-29.491h95.339v35.146h-56.153v84.836h44.438v36.358h-44.438Z"/>
  <path d="m831.367,283.191c-11.715-13.735-18.179-32.723-18.179-87.26v-93.32c0-54.537,6.464-73.525,18.179-87.26,8.484-9.696,21.007-15.352,37.57-15.352s29.087,5.656,37.571,15.352c11.715,13.735,18.179,32.722,18.179,87.26v93.32c0,54.537-6.464,73.525-18.179,87.26-8.484,9.695-21.008,15.351-37.571,15.351s-29.086-5.656-37.57-15.351Zm21.412-78.777c0,37.167.404,56.558,16.158,56.558s16.16-19.391,16.16-56.558v-110.287c0-37.166-.404-56.557-16.16-56.557s-16.158,19.391-16.158,56.557v110.287Z"/>
  <path d="m1048.708,157.553l27.875,136.141h-41.611l-23.026-122.81h-12.12v93.32l.404,29.491h-39.59l.404-29.491V34.338l-.404-29.491h50.093c49.69,0,61.808,37.57,61.808,83.22v.808c0,28.683-6.059,53.729-23.834,68.677Zm-48.882-21.007h4.848c23.835,0,27.471-21.007,27.471-47.67v-.808c0-26.663-4.445-48.074-25.855-48.074h-6.464v96.552Z"/>
  <path d="m1106.067,264.203V34.338l-.404-29.491h54.133l19.795,151.493c1.616,12.119,2.827,26.259,3.232,36.359h1.616c.807-10.1,2.02-24.239,3.636-36.359l19.794-151.493h53.326l-.404,29.491v229.865l.404,29.491h-35.146l.404-29.491V117.155c0-11.311.809-26.663,1.212-37.166h-1.616c-.807,10.503-2.423,25.45-4.04,36.358l-23.835,177.348h-29.894l-23.835-177.348c-1.616-10.908-2.829-25.855-3.636-36.358h-1.616c.404,10.503,1.212,25.855,1.212,37.166v147.049l.404,29.491h-35.146l.404-29.491Z"/>
  <path d="m1325.019,293.694h-39.993L1322.192,4.848h53.729l36.762,288.847h-39.591l-6.867-64.637h-34.339l-6.868,64.637Zm10.504-100.591h27.067l-9.292-88.472c-1.212-12.927-2.829-37.974-3.232-47.669h-1.616c-.807,9.695-2.423,34.742-3.636,47.669l-9.292,88.472Z"/>
  <path d="m1490.653,39.994v224.21l.405,29.491h-39.591l.404-29.491V39.994h-36.357V4.848h111.498v35.146h-36.359Z"/>
  <path d="m1616.692,39.994v224.21l.405,29.491h-39.591l.404-29.491V39.994h-36.357V4.848h111.498v35.146h-36.359Z"/>
  <path d="m1718.088,161.188v97.36h57.769v35.146h-96.955l.404-29.491V34.338l-.404-29.491h95.34v35.146h-56.154v84.836h44.438v36.358h-44.438Z"/>
  <path d="m1894.626,157.553l27.875,136.141h-41.611l-23.026-122.81h-12.12v93.32l.404,29.491h-39.59l.404-29.491V34.338l-.404-29.491h50.093c49.69,0,61.808,37.57,61.808,83.22v.808c0,28.683-6.059,53.729-23.834,68.677Zm-48.882-21.007h4.848c23.835,0,27.471-21.007,27.471-47.67v-.808c0-26.663-4.445-48.074-25.855-48.074h-6.464v96.552Z"/>
</svg>