<?xml version="1.0" encoding="UTF-8"?>
<svg fill="white" id="a" data-name="Layer 1" xmlns="http://www.w3.org/2000/svg" width="1922.435" height="170.184" viewBox="0 0 1922.435 170.184">
  <path d="m50.203,89.813l15.89,77.608h-23.72l-13.127-70.008h-6.908v53.197l.23,16.811H0l.23-16.811V19.574L0,2.763h28.556c28.326,0,35.235,21.417,35.235,47.44v.461c0,16.35-3.454,30.629-13.587,39.149Zm-27.865-11.975h2.763c13.587,0,15.66-11.976,15.66-27.174v-.461c0-15.199-2.533-27.404-14.739-27.404h-3.685v55.04Z"/>
  <path d="m105.01,91.886v55.5h32.931v20.035h-55.27l.23-16.811V19.574l-.23-16.811h54.348v20.035h-32.01v48.361h25.332v20.726h-25.332Z"/>
  <path d="m170.641,167.421h-22.799L169.028,2.763h30.629l20.956,164.657h-22.568l-3.915-36.846h-19.575l-3.915,36.846Zm5.987-57.342h15.429l-5.297-50.433c-.691-7.369-1.612-21.648-1.842-27.174h-.921c-.46,5.527-1.382,19.805-2.073,27.174l-5.297,50.433Z"/>
  <path d="m275.192,110.77h22.568v.69c0,30.629-4.145,42.144-10.824,49.973-4.836,5.527-11.975,8.751-21.417,8.751s-16.581-3.224-21.417-8.751c-6.679-7.829-10.363-18.654-10.363-49.743v-53.197c0-31.089,3.685-41.913,10.363-49.743,4.836-5.527,11.975-8.751,21.417-8.751s16.581,3.224,21.417,8.751c6.448,7.6,10.363,17.732,10.363,46.288v.691h-22.569v-2.072c0-20.957-.23-32.241-9.212-32.241s-9.212,11.284-9.212,32.241v62.869c0,20.956.23,32.24,9.212,32.24s9.672-11.515,9.672-32.701v-5.297Z"/>
  <path d="m349.113,22.799v127.811l.23,16.811h-22.568l.23-16.811V22.799h-20.726V2.763h63.56v20.035h-20.726Z"/>
  <path d="m407.145,2.763l-.23,16.811v131.035l.23,16.811h-22.569l.23-16.811V19.574l-.23-16.811h22.569Z"/>
  <path d="m419.81,2.763h23.029l11.284,93.037c.921,6.908,1.612,17.732,1.842,23.489h.921c.23-5.757,1.152-16.581,2.073-23.489l11.284-93.037h22.338l-23.95,164.657h-24.871L419.81,2.763Z"/>
  <path d="m527.816,2.763l-.23,16.811v131.035l.23,16.811h-22.569l.23-16.811V19.574l-.23-16.811h22.569Z"/>
  <path d="m585.388,22.799v127.811l.23,16.811h-22.568l.23-16.811V22.799h-20.726V2.763h63.56v20.035h-20.726Z"/>
  <path d="m647.564,63.79h.921l13.127-61.027h21.647l-24.411,97.183v50.663l.23,16.811h-22.568l.23-16.811v-50.663l-24.411-97.183h22.338l12.896,61.027Z"/>
  <path d="m692.012,58.493c0-31.089,3.685-41.913,10.363-49.743,4.836-5.527,11.975-8.751,21.417-8.751s16.581,3.224,21.417,8.751c6.448,7.6,10.363,17.732,10.363,46.288v.691h-22.569v-2.072c0-20.957-.23-32.241-9.212-32.241s-9.212,11.284-9.212,32.241v62.869c0,20.725,0,32.24,9.442,32.24,10.363,0,11.284-13.817,11.284-37.077v-8.29h-10.594v-20.726h32.241v84.747h-10.363l-4.836-13.817h-.461c-4.375,11.054-10.593,16.12-19.805,16.12-7.6,0-14.278-2.994-19.114-8.291-6.909-7.829-10.363-18.654-10.363-49.743v-53.197Z"/>
  <path d="m792.415,167.421h-22.799L790.803,2.763h30.629l20.956,164.657h-22.568l-3.915-36.846h-19.575l-3.915,36.846Zm5.988-57.342h15.429l-5.297-50.433c-.691-7.369-1.612-21.648-1.842-27.174h-.921c-.461,5.527-1.382,19.805-2.073,27.174l-5.297,50.433Z"/>
  <path d="m906.409,89.813l15.89,77.608h-23.72l-13.127-70.008h-6.908v53.197l.23,16.811h-22.569l.23-16.811V19.574l-.23-16.811h28.556c28.326,0,35.234,21.417,35.234,47.44v.461c0,16.35-3.454,30.629-13.587,39.149Zm-27.865-11.975h2.763c13.587,0,15.66-11.976,15.66-27.174v-.461c0-15.199-2.534-27.404-14.739-27.404h-3.685v55.04Z"/>
  <path d="m938.877,167.421l.229-16.811V19.574l-.229-16.811h27.404c23.259,0,35.004,16.12,35.004,40.991v.461c0,17.962-5.297,30.167-14.739,36.386v.922c10.593,5.757,17.271,18.883,17.271,37.537v.461c0,31.319-13.127,47.9-37.077,47.9h-27.864Zm22.337-96.031h5.067c9.671,0,12.666-10.593,12.666-25.332v-.461c0-14.278-4.145-22.799-14.508-22.799h-3.225v48.591Zm3.685,75.996c12.666,0,15.891-10.133,15.891-28.787v-.46c0-16.811-3.915-26.484-14.279-26.484h-5.297v55.73h3.685Z"/>
  <path d="m1035.599,167.421h-22.798l21.186-164.657h30.629l20.956,164.657h-22.569l-3.915-36.846h-19.574l-3.915,36.846Zm5.988-57.342h15.43l-5.297-50.433c-.69-7.369-1.612-21.648-1.841-27.174h-.922c-.461,5.527-1.382,19.805-2.073,27.174l-5.297,50.433Z"/>
  <path d="m1098.699,58.493c0-31.089,3.685-41.913,10.363-49.743,4.837-5.527,11.976-8.751,21.418-8.751s16.581,3.224,21.417,8.751c6.449,7.6,10.363,17.732,10.363,46.288v.691h-22.568v-2.072c0-20.957-.23-32.241-9.212-32.241s-9.212,11.284-9.212,32.241v62.869c0,20.725,0,32.24,9.441,32.24,10.364,0,11.284-13.817,11.284-37.077v-8.29h-10.593v-20.726h32.241v84.747h-10.364l-4.836-13.817h-.461c-4.375,11.054-10.593,16.12-19.805,16.12-7.6,0-14.278-2.994-19.114-8.291-6.908-7.829-10.363-18.654-10.363-49.743v-53.197Z"/>
  <path d="m1206.24,91.886v55.5h32.931v20.035h-55.27l.23-16.811V19.574l-.23-16.811h54.349v20.035h-32.011v48.361h25.333v20.726h-25.333Z"/>
  <path d="m1296.744,110.77h22.569v.69c0,30.629-4.145,42.144-10.824,49.973-4.836,5.527-11.976,8.751-21.417,8.751s-16.581-3.224-21.418-8.751c-6.678-7.829-10.363-18.654-10.363-49.743v-53.197c0-31.089,3.685-41.913,10.363-49.743,4.837-5.527,11.976-8.751,21.418-8.751s16.581,3.224,21.417,8.751c6.448,7.6,10.363,17.732,10.363,46.288v.691h-22.568v-2.072c0-20.957-.23-32.241-9.212-32.241s-9.212,11.284-9.212,32.241v62.869c0,20.956.229,32.24,9.212,32.24s9.671-11.515,9.671-32.701v-5.297Z"/>
  <path d="m1346.714,161.433c-6.678-7.829-10.363-18.654-10.363-49.743v-53.197c0-31.089,3.685-41.913,10.363-49.743,4.837-5.527,11.976-8.751,21.418-8.751s16.581,3.224,21.417,8.751c6.678,7.83,10.363,18.654,10.363,49.743v53.197c0,31.089-3.685,41.914-10.363,49.743-4.836,5.527-11.975,8.751-21.417,8.751s-16.581-3.224-21.418-8.751Zm12.206-44.906c0,21.186.23,32.24,9.212,32.24s9.212-11.054,9.212-32.24v-62.869c0-21.187-.23-32.241-9.212-32.241s-9.212,11.054-9.212,32.241v62.869Z"/>
  <path d="m1420.405,167.421l.23-16.811V19.574l-.23-16.811h22.569l-.23,16.811v127.811h29.477v20.035h-51.815Z"/>
  <path d="m1486.958,167.421l.23-16.811V19.574l-.23-16.811h22.569l-.23,16.811v127.811h29.477v20.035h-51.815Z"/>
  <path d="m1575.851,91.886v55.5h32.932v20.035h-55.27l.229-16.811V19.574l-.229-16.811h54.348v20.035h-32.011v48.361h25.333v20.726h-25.333Z"/>
  <path d="m1666.354,110.77h22.569v.69c0,30.629-4.145,42.144-10.824,49.973-4.836,5.527-11.976,8.751-21.417,8.751s-16.581-3.224-21.418-8.751c-6.678-7.829-10.363-18.654-10.363-49.743v-53.197c0-31.089,3.685-41.913,10.363-49.743,4.837-5.527,11.976-8.751,21.418-8.751s16.581,3.224,21.417,8.751c6.448,7.6,10.363,17.732,10.363,46.288v.691h-22.568v-2.072c0-20.957-.23-32.241-9.212-32.241s-9.212,11.284-9.212,32.241v62.869c0,20.956.229,32.24,9.212,32.24s9.671-11.515,9.671-32.701v-5.297Z"/>
  <path d="m1740.276,22.799v127.811l.23,16.811h-22.569l.23-16.811V22.799h-20.726V2.763h63.561v20.035h-20.726Z"/>
  <path d="m1782.649,161.433c-6.678-7.829-10.363-18.654-10.363-49.743v-53.197c0-31.089,3.685-41.913,10.363-49.743,4.837-5.527,11.976-8.751,21.418-8.751s16.581,3.224,21.417,8.751c6.678,7.83,10.363,18.654,10.363,49.743v53.197c0,31.089-3.685,41.914-10.363,49.743-4.836,5.527-11.975,8.751-21.417,8.751s-16.581-3.224-21.418-8.751Zm12.206-44.906c0,21.186.23,32.24,9.212,32.24s9.212-11.054,9.212-32.24v-62.869c0-21.187-.23-32.241-9.212-32.241s-9.212,11.054-9.212,32.241v62.869Z"/>
  <path d="m1906.544,89.813l15.891,77.608h-23.72l-13.127-70.008h-6.909v53.197l.23,16.811h-22.569l.23-16.811V19.574l-.23-16.811h28.556c28.326,0,35.235,21.417,35.235,47.44v.461c0,16.35-3.454,30.629-13.587,39.149Zm-27.865-11.975h2.764c13.587,0,15.659-11.976,15.659-27.174v-.461c0-15.199-2.533-27.404-14.739-27.404h-3.685v55.04Z"/>
</svg>