<?xml version="1.0" encoding="UTF-8"?>
<svg fill="white" id="a" data-name="Layer 1" xmlns="http://www.w3.org/2000/svg" width="1913.014" height="472.785" viewBox="0 0 1913.014 472.785">
  <path d="m122.159,7.46c-13.369,3.73-23.779,15.386-31.239,34.969-5.908,15.233-8.859,31.399-8.859,48.491v175.312c0,13.683,1.399,23.627,4.196,29.842,3.73,7.772,11.03,14.301,21.914,19.582-12.436,6.841-22.847,14.92-31.239,24.246-5.595,6.221-12.902,17.251-21.914,33.104-7.773-14.293-15.08-25.331-21.914-33.104-8.086-9.326-18.65-17.405-31.705-24.246,11.394-4.969,18.679-11.496,21.848-19.582,2.528-6.215,3.796-16.159,3.796-29.842v-52.687c0-26.416-8.706-44.447-26.11-54.085,11.496-6.833,18.956-14.607,22.38-23.313,2.484-6.527,3.73-17.251,3.73-32.171,0-28.595-9.019-45.846-27.043-51.755,2.171.313,5.129.466,8.859.466,15.853,0,34.969-7.926,57.35-23.779C89.827,12.123,108.478,2.492,122.159,0v7.46Z"/>
  <path d="m290.474,317.623c-15.853,1.553-31.472,7.599-46.858,18.148-15.387,10.549-27.123,22.963-35.203,37.234-7.773-13.652-20.675-25.754-38.699-36.303-16.166-9.616-32.951-15.977-50.356-19.08,17.718-8.072,26.577-21.411,26.577-40.032v-59.571c0-24.202-9.485-41.577-28.441-52.126,24.245,0,46.779-4.342,67.607-13.033,23-9.617,40.871-23.583,53.62-41.89,7.46,14.279,14.294,25.134,20.515,32.58,7.766,9.005,18.184,16.45,31.239,22.344-7.773,6.827-13.682,18.148-17.718,33.971-4.356,17.383-9.325,29.17-14.92,35.377-10.884,12.414-30.307,22.184-58.282,29.316v7.919c-1.246,20.792,9.42,34.445,32.004,40.957,11.438,3.104,31.079,4.496,58.916,4.189ZM273.688.466l-69.938,97.448h-14.454L213.075.466h60.613Zm-33.57,213.545c0-9.012-4.663-19.969-13.988-32.871-9.325-12.895-18.184-19.35-26.577-19.35v91.853c10.563-2.171,19.969-6.68,28.208-13.521,8.232-6.833,12.356-15.539,12.356-26.11Z"/>
  <path d="m752.06,317.521c-12.123,6.527-21.914,14.453-29.375,23.779-4.356,5.595-11.037,16.166-20.049,31.705-9.019-15.539-15.7-26.11-20.049-31.705-7.46-9.326-17.251-17.252-29.375-23.779,10.564-4.969,17.558-11.656,20.982-20.049,2.171-5.596,3.264-15.227,3.264-28.908v-62.479c0-9.012-2.025-16.938-6.062-23.779-4.663-8.08-11.19-12.123-19.583-12.123s-14.92,4.043-19.583,12.123c-4.043,6.841-6.061,14.767-6.061,23.779v62.479c0,14.301,1.085,24.092,3.264,29.374,3.104,7.773,10.257,14.302,21.448,19.583-12.123,6.527-22.074,14.453-29.84,23.779-4.043,4.662-10.724,15.232-20.049,31.705-9.325-16.158-16.013-26.729-20.049-31.705-8.087-9.631-17.878-17.558-29.374-23.779,10.563-4.969,17.557-11.656,20.981-20.049,2.171-5.596,3.264-15.227,3.264-28.908v-62.479c0-9.012-2.025-16.938-6.062-23.779-4.662-8.08-11.19-12.123-19.583-12.123s-14.92,4.043-19.583,12.123c-4.043,6.841-6.061,14.767-6.061,23.779v62.479c0,14.301,1.085,24.092,3.264,29.374,3.104,7.773,10.258,14.302,21.448,19.583-12.123,6.527-22.074,14.453-29.84,23.779-4.043,4.662-10.724,15.232-20.049,31.705-4.357-7.766-11.038-18.49-20.049-32.172-7.773-9.012-17.564-16.785-29.374-23.312,10.563-4.969,17.558-11.656,20.981-20.049,2.484-5.901,3.73-15.54,3.73-28.908v-62.479c0-8.079-2.331-15.925-6.994-23.546-4.663-7.613-10.571-13.128-17.718-16.552,13.988-7.146,24.165-14.374,30.54-21.681,6.368-7.3,12.662-18.417,18.884-33.337,16.785,33.884,33.723,50.822,50.822,50.822s34.037-16.938,50.822-50.822c16.785,33.884,33.724,50.822,50.822,50.822s34.037-16.938,50.822-50.822c9.325,18.65,15.386,29.688,18.184,33.104,6.214,7.46,16.625,14.768,31.239,21.914-16.166,7.46-24.246,20.829-24.246,40.098v62.479c0,13.988,1.085,23.626,3.264,28.908,3.417,8.393,10.41,15.08,20.981,20.049Z"/>
  <path d="m962.34,319.48c-13.055,7.141-23.007,14.586-29.84,22.345-5.595,6.207-12.123,16.596-19.583,31.181-17.412-31.393-34.503-47.092-51.289-47.092-17.098,0-34.35,15.699-51.754,47.092-9.019-16.785-15.081-27.195-18.184-31.239-6.841-8.393-16.319-15.853-28.441-22.38,16.159-4.969,24.245-19.583,24.245-43.828,0-17.092-4.663-29.994-13.987-38.7,9.944,4.663,18.803,6.994,26.576,6.994,9.325,0,19.736-4.196,31.239-12.589,11.496-8.393,20.202-12.589,26.11-12.589,8.08,0,16.938,4.357,26.577,13.055v-32.638c0-6.833-2.258-13.128-6.761-18.883-4.509-5.748-9.872-8.626-16.086-8.626-16.785,0-33.883,15.7-51.288,47.092-8.706-16.093-14.767-26.307-18.184-30.642-6.221-8.043-15.7-15.321-28.441-21.819,13.674-6.499,23.466-13.922,29.374-22.286,3.73-5.26,9.478-16.246,17.251-32.958,16.159,34.503,33.41,51.754,51.754,51.754,18.024,0,35.123-17.251,51.289-51.754,6.833,15.204,13.055,26.22,18.65,33.046,6.833,7.759,17.091,15.205,30.773,22.336-7.598,3.417-13.769,9.005-18.519,16.764s-7.125,15.824-7.125,24.194v62.835c0,13.347,1.26,23.116,3.796,29.323,3.162,8.072,10.447,14.738,21.848,20.012Zm-78.331-39.996v-29.213c-4.976-12.982-12.902-19.473-23.779-19.473-13.988,0-20.982,14.067-20.982,42.196,0,13.295.772,22.569,2.332,27.822,3.104,10.207,9.631,15.307,19.583,15.307,15.227,0,22.847-12.211,22.847-36.639Z"/>
  <path d="m1173.549,427.091c-3.424-.313-8.706-.467-15.853-.467-23.007,0-43.988,3.264-62.945,9.792-23.938,8.079-40.725,20.202-50.355,36.368-12.436-18.964-28.288-28.442-47.558-28.442-6.528,0-12.283,4.35-17.252,13.056-4.976,8.698-6.994,13.055-6.062,13.055-1.552,0-2.331-2.797-2.331-8.393,0-15.853,3.264-28.136,9.791-36.834,3.104-4.043,10.564-10.104,22.381-18.184,9.944-6.841,16.785-14.614,20.516-23.313,18.337,27.043,37.919,40.564,58.748,40.564,1.865,0,4.969-.313,9.325-.933v-101.178c-19.583,0-34.197,4.197-43.828,12.59-6.841,5.908-14.92,18.811-24.245,38.698-7.154-15.853-13.521-27.042-19.117-33.569-7.46-9.013-18.03-16.32-31.705-21.914,16.472-8.08,24.712-21.448,24.712-40.099v-62.479c0-24.865-8.24-41.336-24.712-49.423,19.583,0,40.251-5.282,62.012-15.853,21.754-10.563,38.073-23.619,48.957-39.166,8.079,14.301,20.981,27.043,38.699,38.233,17.718,11.19,34.656,16.785,50.822,16.785-8.546,1.246-15.351,7.621-20.406,19.117-4.116,9.325-6.171,18.963-6.171,28.908v52.22c0,24.559,8.546,41.811,25.645,51.756-11.503,7.153-18.964,15.386-22.38,24.711-2.179,5.596-3.265,16.632-3.265,33.104,0,30.146,8.859,47.244,26.577,51.288Zm-81.595-118.43v-83.926c0-28.595-13.835-49.423-41.497-62.479v123.092c0,15.853,10.877,23.779,32.638,23.779,2.798,0,5.748-.153,8.859-.467Z"/>
  <path d="m1384.758,317.521c-12.749,6.841-22.693,14.614-29.841,23.312-3.424,4.043-10.104,14.768-20.049,32.172-9.325-16.158-16.013-26.729-20.049-31.705-8.087-9.631-17.878-17.558-29.374-23.779,10.563-4.969,17.558-11.656,20.981-20.049,2.171-5.596,3.264-15.227,3.264-28.908v-62.479c0-9.012-2.025-16.938-6.062-23.779-4.662-8.08-11.189-12.123-19.583-12.123s-14.92,4.043-19.582,12.123c-4.044,6.841-6.062,14.767-6.062,23.779v62.479c0,13.368,1.238,23.007,3.729,28.908,3.417,8.393,10.411,15.08,20.982,20.049-12.123,6.527-22.075,14.453-29.841,23.779-4.043,4.662-10.724,15.232-20.049,31.705-4.356-7.766-11.037-18.49-20.049-32.172-7.773-9.012-17.565-16.785-29.375-23.312,10.564-4.969,17.558-11.656,20.982-20.049,2.483-5.901,3.729-15.54,3.729-28.908v-62.479c0-18.65-8.239-32.171-24.712-40.564,13.675-7.146,23.779-14.606,30.307-22.38,5.282-5.901,11.657-16.625,19.117-32.172,16.785,33.884,33.724,50.822,50.821,50.822s34.037-16.938,50.822-50.822c9.012,17.412,15.387,28.289,19.116,32.638,6.215,7.154,16.473,14.454,30.773,21.914-16.479,8.087-24.712,21.608-24.712,40.564v62.479c0,12.749,1.238,22.381,3.73,28.908,3.104,8.086,10.098,14.768,20.981,20.049Z"/>
  <path d="m1568.923,317.623c-15.853,1.553-31.473,7.599-46.858,18.148-15.387,10.549-27.123,22.963-35.202,37.234-7.773-13.652-20.676-25.754-38.7-36.303-16.165-9.616-32.951-15.977-50.355-19.08,17.718-8.072,26.577-21.411,26.577-40.032v-59.571c0-24.202-9.485-41.577-28.442-52.126,24.246,0,46.779-4.342,67.607-13.033,23-9.617,40.87-23.583,53.62-41.89,7.46,14.279,14.293,25.134,20.515,32.58,7.767,9.005,18.185,16.45,31.239,22.344-7.773,6.827-13.682,18.148-17.718,33.971-4.356,17.383-9.325,29.17-14.92,35.377-10.885,12.414-30.307,22.184-58.282,29.316v7.919c-1.246,20.792,9.42,34.445,32.004,40.957,11.438,3.104,31.079,4.496,58.916,4.189ZM1552.138.466l-69.938,97.448h-14.454L1491.524.466h60.613Zm-33.57,213.545c0-9.012-4.663-19.969-13.987-32.871-9.325-12.895-18.185-19.35-26.577-19.35v91.853c10.563-2.171,19.969-6.68,28.209-13.521,8.231-6.833,12.355-15.539,12.355-26.11Z"/>
  <path d="m1701.338,205.153h-9.791v-16.785c0-11.19-2.099-18.65-6.295-22.38-4.196-3.73-12.203-5.595-24.012-5.595v105.839c0,28.908,8.858,47.559,26.576,55.951-14.614,8.087-25.024,14.92-31.239,20.516-7.154,6.841-14.454,16.945-21.914,30.307-8.393-14.607-15.699-24.865-21.914-30.773-4.356-4.349-14.92-11.029-31.705-20.049,10.563-4.969,17.718-12.742,21.447-23.312,2.484-7.146,3.73-18.023,3.73-32.639v-105.839h-31.706v-20.982h31.706v-48.49c0-8.393-4.356-16.319-13.056-23.779-.933-.933-5.755-4.815-14.454-11.656l.467-.466c7.519-.933,18.169-3.264,31.953-6.994,7.198-2.484,21.447-11.496,42.75-27.042,16.29-11.81,32.105-18.803,47.456-20.982l-.48,6.062c-26.417,8.086-39.617,36.215-39.617,84.393v48.957c14.606,0,23.466-2.018,26.576-6.061,2.171-2.797,3.264-11.81,3.264-27.043h10.258v98.846Z"/>
  <path d="m1913.014,317.054c-51.915.934-88.123,19.583-108.638,55.951-7.154-12.429-20.596-24.711-40.332-36.834-19.742-12.123-36.601-18.49-50.589-19.117,7.461-.306,13.675-6.68,18.65-19.116,4.35-10.563,6.528-20.049,6.528-28.441v-52.221c0-25.484-8.24-42.896-24.712-52.221,20.821,0,41.184-4.663,61.079-13.988,21.448-9.944,36.987-23.313,46.626-40.098,6.527,11.503,19.889,23.24,40.098,35.202,20.202,11.97,37.141,18.264,50.822,18.884-16.785,4.043-25.178,20.515-25.178,49.423v52.221c0,24.872,8.546,41.657,25.645,50.355Zm-76.933,4.663v-104.908c0-13.361-4.823-25.484-14.454-36.368-4.976-5.595-15.547-13.827-31.705-24.711v113.301c0,20.515,15.386,38.08,46.159,52.687Z"/>
</svg>