<?xml version="1.0" encoding="UTF-8"?>
<svg fill="white" id="a" data-name="Layer 1" xmlns="http://www.w3.org/2000/svg" width="1920" height="326.109" viewBox="0 0 1920 326.109">
  <path d="m96.199,172.101l30.448,148.712h-45.452l-25.153-134.15h-13.238v101.937l.442,32.213H0l.441-32.213V37.509L0,5.295h54.719c54.278,0,67.516,41.04,67.516,90.904v.883c0,31.331-6.62,58.691-26.036,75.019Zm-53.395-22.947h5.295c26.036,0,30.007-22.947,30.007-52.072v-.883c0-29.125-4.854-52.513-28.242-52.513h-7.061v105.467Z"/>
  <path d="m201.222,176.072v106.35h63.103v38.391h-105.907l.441-32.213V37.509l-.441-32.214h104.142v38.392h-61.338v92.67h48.541v39.715h-48.541Z"/>
  <path d="m328.75,234.321c3.089,35.745,9.708,50.748,23.83,50.748s21.623-11.032,21.623-34.42c0-21.623-9.708-38.833-26.477-59.132l-20.741-26.477c-23.388-28.242-36.185-54.278-36.185-86.933,0-49.424,24.713-78.107,61.78-78.107s56.484,27.801,61.338,78.989l-41.481,5.296c-1.765-29.125-7.502-43.246-20.299-43.246-11.914,0-18.092,10.149-18.092,34.42,0,21.182,10.149,36.185,26.918,56.925l20.739,26.477c23.389,28.684,35.745,55.602,35.745,89.14,0,50.306-24.713,78.107-64.427,78.107s-61.78-30.889-66.193-86.05l41.922-5.738Z"/>
  <path d="m447.893,288.6V37.509l-.442-32.214h54.719c54.277,0,67.516,41.04,67.516,91.787v.883c0,50.306-13.239,91.346-67.516,91.346h-11.914v99.289l.44,32.213h-43.245l.442-32.213Zm49.423-137.681c23.388,0,28.242-23.389,28.242-52.954v-.883c0-30.007-4.854-53.395-28.242-53.395h-7.06v107.232h7.06Z"/>
  <path d="m615.575,309.34c-12.797-15.004-19.857-35.745-19.857-95.318v-101.936c0-59.573,7.06-80.314,19.857-95.317,9.267-10.591,22.946-16.769,41.04-16.769s31.773,6.178,41.04,16.769c12.797,15.003,19.857,35.744,19.857,95.317v101.936c0,59.573-7.06,80.314-19.857,95.318-9.267,10.59-22.948,16.768-41.04,16.768s-31.773-6.178-41.04-16.768Zm23.388-86.051c0,40.599.442,61.78,17.652,61.78s17.652-21.181,17.652-61.78v-120.47c0-40.598-.442-61.779-17.652-61.779s-17.652,21.182-17.652,61.779v120.47Z"/>
  <path d="m757.227,288.6V37.509l-.442-32.214h43.687l37.509,135.033c4.854,17.21,8.385,33.979,11.032,47.658h1.765c-.442-12.797-2.207-31.772-2.207-45.452V37.509l-.44-32.214h41.922l-.442,32.214v251.091l.442,32.213h-38.392l-42.803-152.684c-5.296-18.534-8.385-33.979-10.592-47.659h-1.764c.44,12.797,1.764,31.773,1.764,45.452v122.678l.442,32.213h-41.922l.442-32.213Z"/>
  <path d="m961.54,234.321c3.089,35.745,9.708,50.748,23.83,50.748s21.623-11.032,21.623-34.42c0-21.623-9.708-38.833-26.477-59.132l-20.741-26.477c-23.388-28.242-36.185-54.278-36.185-86.933,0-49.424,24.713-78.107,61.78-78.107s56.484,27.801,61.338,78.989l-41.481,5.296c-1.765-29.125-7.502-43.246-20.299-43.246-11.914,0-18.092,10.149-18.092,34.42,0,21.182,10.149,36.185,26.918,56.925l20.739,26.477c23.389,28.684,35.745,55.602,35.745,89.14,0,50.306-24.713,78.107-64.427,78.107s-61.78-30.889-66.193-86.05l41.922-5.738Z"/>
  <path d="m1123.486,5.295l-.44,32.214v251.091l.44,32.213h-43.245l.442-32.213V37.509l-.442-32.214h43.245Z"/>
  <path d="m1147.757,5.295h44.128l21.623,178.279c1.765,13.238,3.089,33.979,3.531,45.011h1.765c.442-11.032,2.207-31.773,3.971-45.011l21.624-178.279h42.803l-45.892,315.518h-47.659L1147.757,5.295Z"/>
  <path d="m1354.278,176.072v106.35h63.102v38.391h-105.907l.442-32.213V37.509l-.442-32.214h104.143v38.392h-61.338v92.67h48.541v39.715h-48.541Z"/>
  <path d="m1450.918,320.813l.442-32.213V37.509l-.442-32.214h43.245l-.44,32.214v244.913h56.484v38.391h-99.289Z"/>
  <path d="m1621.694,5.295l-.44,32.214v251.091l.44,32.213h-43.245l.442-32.213V37.509l-.442-32.214h43.245Z"/>
  <path d="m1693.181,234.321c3.089,35.745,9.708,50.748,23.83,50.748s21.623-11.032,21.623-34.42c0-21.623-9.708-38.833-26.477-59.132l-20.741-26.477c-23.388-28.242-36.185-54.278-36.185-86.933,0-49.424,24.713-78.107,61.78-78.107s56.484,27.801,61.338,78.989l-41.481,5.296c-1.765-29.125-7.502-43.246-20.299-43.246-11.914,0-18.092,10.149-18.092,34.42,0,21.182,10.149,36.185,26.918,56.925l20.739,26.477c23.389,28.684,35.745,55.602,35.745,89.14,0,50.306-24.713,78.107-64.427,78.107s-61.78-30.889-66.193-86.05l41.922-5.738Z"/>
  <path d="m1880.284,43.687v244.913l.442,32.213h-43.245l.44-32.213V43.687h-39.715V5.295h121.794v38.392h-39.716Z"/>
</svg>