<?xml version="1.0" encoding="UTF-8"?>
<svg fill="white" id="a" data-name="Layer 1" xmlns="http://www.w3.org/2000/svg" width="1920.987" height="1066.618" viewBox="0 0 1920.987 1066.618">
  <path d="m141.445,17.319l-1.443,105.364v821.252l1.443,105.364H0l1.443-105.364V122.683L0,17.319h141.445Z"/>
  <path d="m282.873,943.935V122.683l-1.443-105.364h142.889l122.683,441.659c15.877,56.289,27.424,111.137,36.083,155.879h5.774c-1.443-41.857-7.217-103.92-7.217-148.662V122.683l-1.443-105.364h137.116l-1.443,105.364v821.252l1.443,105.364h-125.57l-140.002-499.392c-17.32-60.62-27.424-111.135-34.64-155.879h-5.774c1.443,41.857,5.774,103.92,5.774,148.662v401.245l1.443,105.364h-137.116l1.443-105.364Z"/>
  <path d="m997.29,575.887v368.048l1.443,105.364h-141.445l1.443-105.364V122.683l-1.443-105.364h340.625v125.57h-200.622v303.1h158.765v129.898h-158.765Z"/>
  <path d="m1342.221,1011.772c-41.855-49.072-64.95-116.909-64.95-311.759v-333.408c0-194.85,23.095-262.685,64.95-311.759,30.31-34.64,75.054-54.846,134.23-54.846s103.92,20.206,134.23,54.846c41.855,49.074,64.95,116.909,64.95,311.759v333.408c0,194.85-23.095,262.686-64.95,311.759-30.31,34.64-75.054,54.846-134.23,54.846s-103.92-20.206-134.23-54.846Zm76.497-281.449c0,132.787,1.443,202.067,57.733,202.067s57.733-69.28,57.733-202.067v-394.028c0-132.787-1.443-202.065-57.733-202.065s-57.733,69.278-57.733,202.065v394.028Z"/>
  <path d="m1792.531,883.316h128.456v165.983h-128.456v-165.983Z"/>
</svg>