<?xml version="1.0" encoding="UTF-8"?>
<svg fill="white" id="a" data-name="Layer 1" xmlns="http://www.w3.org/2000/svg" width="1920" height="395.575" viewBox="0 0 1920 395.575">
  <path d="m.534,350.078V45.499L0,6.423h71.727l26.229,200.732c2.142,16.06,3.748,34.794,4.284,48.176h2.142c1.068-13.382,2.675-32.116,4.816-48.176L135.427,6.423h70.658l-.535,39.076v304.579l.535,39.075h-46.571l.535-39.075v-194.845c0-14.989,1.071-35.329,1.606-49.247h-2.142c-1.071,13.918-3.21,33.723-5.352,48.176l-31.584,234.99h-39.61l-31.581-234.99c-2.142-14.453-3.748-34.258-4.819-48.176h-2.139c.533,13.918,1.604,34.258,1.604,49.247v194.845l.535,39.075H0l.534-39.075Z"/>
  <path d="m309.915,213.579v129.005h76.546v46.568h-128.468l.535-39.075V45.499l-.535-39.076h126.327v46.57h-74.404v112.41h58.881v48.176h-58.881Z"/>
  <path d="m427.669,350.078V45.499l-.535-39.076h71.727l26.229,200.732c2.142,16.06,3.748,34.794,4.284,48.176h2.142c1.068-13.382,2.675-32.116,4.816-48.176l26.229-200.732h70.658l-.535,39.076v304.579l.535,39.075h-46.571l.535-39.075v-194.845c0-14.989,1.071-35.329,1.606-49.247h-2.142c-1.071,13.918-3.213,33.723-5.352,48.176l-31.584,234.99h-39.61l-31.581-234.99c-2.142-14.453-3.748-34.258-4.819-48.176h-2.139c.535,13.918,1.604,34.258,1.604,49.247v194.845l.535,39.075h-46.568l.535-39.075Z"/>
  <path d="m704.934,375.236c-15.523-18.2-24.087-43.358-24.087-115.623v-123.651c0-72.263,8.565-97.422,24.087-115.622,11.242-12.847,27.835-20.341,49.781-20.341s38.542,7.494,49.781,20.341c15.525,18.2,24.09,43.358,24.09,115.622v123.651c0,72.265-8.565,97.423-24.09,115.623-11.239,12.846-27.833,20.339-49.781,20.339s-38.539-7.494-49.781-20.339Zm28.371-104.381c0,49.246.535,74.939,21.41,74.939s21.413-25.694,21.413-74.939V124.722c0-49.247-.535-74.941-21.413-74.941s-21.41,25.694-21.41,74.941v146.133Z"/>
  <path d="m992.912,208.761l36.936,180.391h-55.136l-30.51-162.727h-16.058v123.652l.535,39.075h-52.458l.535-39.075V45.499l-.535-39.076h66.375c65.839,0,81.897,49.782,81.897,110.27v1.07c0,38.005-8.029,71.194-31.581,90.999Zm-64.768-27.834h6.423c31.581,0,36.4-27.835,36.4-63.165v-1.07c0-35.329-5.89-63.7-34.258-63.7h-8.565v127.934Z"/>
  <path d="m1127.262,148.274h2.142l30.513-141.851h50.316l-56.742,225.891v117.763l.535,39.075h-52.456l.533-39.075v-117.763l-56.739-225.891h51.923l29.975,141.851Z"/>
  <path d="m1239.672,389.152l.535-39.075V45.499l-.535-39.076h52.458l-.535,39.076v297.085h68.517v46.568h-120.439Z"/>
  <path d="m1429.694,389.152h-52.994L1425.946,6.423h71.194l48.71,382.729h-52.458l-9.1-85.646h-45.497l-9.1,85.646Zm13.916-133.286h35.865l-12.313-117.228c-1.606-17.129-3.746-50.316-4.281-63.163h-2.142c-1.071,12.847-3.213,46.034-4.816,63.163l-12.313,117.228Z"/>
  <path d="m1578.499,350.078V45.499l-.535-39.076h52.994l45.497,163.798c5.89,20.876,10.171,41.218,13.384,57.811h2.139c-.535-15.524-2.675-38.541-2.675-55.136V45.499l-.535-39.076h50.852l-.535,39.076v304.579l.535,39.075h-46.571l-51.923-185.209c-6.423-22.482-10.168-41.216-12.846-57.81h-2.142c.535,15.523,2.142,38.541,2.142,55.134v148.81l.535,39.075h-50.852l.535-39.075Z"/>
  <path d="m1843.454,213.579v129.005h76.546v46.568h-128.468l.535-39.075V45.499l-.535-39.076h126.327v46.57h-74.404v112.41h58.881v48.176h-58.881Z"/>
</svg>