<?xml version="1.0" encoding="UTF-8"?>
<svg fill="white" id="a" data-name="Layer 1" xmlns="http://www.w3.org/2000/svg" width="1920" height="439.977" viewBox="0 0 1920 439.977">
  <path d="m.596,389.371V50.606L0,7.144h58.941l50.607,182.182c6.548,23.22,11.311,45.844,14.883,64.301h2.382c-.596-17.266-2.977-42.867-2.977-61.324V50.606l-.595-43.462h56.559l-.595,43.462v338.765l.595,43.462h-51.797l-57.75-205.997c-7.144-25.005-11.313-45.843-14.288-64.3h-2.382c.596,17.266,2.382,42.867,2.382,61.322v165.513l.595,43.462H0l.596-43.462Z"/>
  <path d="m295.888,7.144l-.595,43.462v338.765l.595,43.462h-58.346l.596-43.462V50.606l-.596-43.462h58.346Z"/>
  <path d="m528.669,7.144l-55.964,166.703,58.941,258.985h-61.324l-38.698-178.015-20.243,48.82v85.734l.595,43.462h-58.346l.595-43.462V50.606l-.595-43.462h58.346l-.595,43.462v93.473c0,11.908-.595,28.578-1.19,39.89h2.38l10.716-36.912L466.751,7.144h61.919Z"/>
  <path d="m626.301,237.551v143.484h85.136v51.797h-142.888l.595-43.462V50.606l-.595-43.462h140.508v51.797h-82.756v125.027h65.491v53.583h-65.491Z"/>
  <path d="m798.356,316.141c4.167,48.224,13.099,68.467,32.152,68.467s29.172-14.883,29.172-46.439c0-29.173-13.099-52.392-35.721-79.779l-27.982-35.721c-31.557-38.104-48.822-73.231-48.822-117.288,0-66.682,33.342-105.38,83.354-105.38s76.207,37.509,82.754,106.571l-55.964,7.144c-2.38-39.295-10.121-58.346-27.387-58.346-16.073,0-24.41,13.694-24.41,46.439,0,28.577,13.694,48.82,36.319,76.802l27.982,35.723c31.554,38.698,48.225,75.016,48.225,120.264,0,67.872-33.342,105.38-86.923,105.38s-83.351-41.676-89.306-116.097l56.559-7.739Z"/>
  <path d="m983.503,417.353c-17.266-20.243-26.79-48.225-26.79-128.599v-137.531c0-80.374,9.524-108.356,26.79-128.599,12.504-14.288,30.959-22.624,55.369-22.624s42.868,8.335,55.369,22.624c17.266,20.243,26.792,48.225,26.792,128.599v137.531c0,80.374-9.527,108.356-26.792,128.599-12.501,14.288-30.959,22.624-55.369,22.624s-42.865-8.335-55.369-22.624Zm31.557-116.097c0,54.774.595,83.351,23.812,83.351s23.815-28.577,23.815-83.351v-162.536c0-54.773-.595-83.351-23.815-83.351s-23.812,28.578-23.812,83.351v162.536Z"/>
  <path d="m1303.81,232.193l41.081,200.639h-61.324l-33.936-180.991h-17.861v137.529l.595,43.462h-58.346l.595-43.462V50.606l-.595-43.462h73.825c73.232,0,91.093,55.369,91.093,122.646v1.191c0,42.271-8.932,79.183-35.126,101.212Zm-72.04-30.959h7.144c35.126,0,40.486-30.959,40.486-70.253v-1.191c0-39.295-6.549-70.849-38.104-70.849h-9.527v142.293Z"/>
  <path d="m1469.317,58.941v330.429l.598,43.462h-58.346l.595-43.462V58.941h-53.584V7.144h164.323v51.797h-53.584Z"/>
  <path d="m1618.749,237.551v143.484h85.136v51.797h-142.888l.595-43.462V50.606l-.595-43.462h140.508v51.797h-82.756v125.027h65.491v53.583h-65.491Z"/>
  <path d="m1878.919,232.193l41.081,200.639h-61.324l-33.936-180.991h-17.861v137.529l.595,43.462h-58.346l.595-43.462V50.606l-.595-43.462h73.825c73.232,0,91.093,55.369,91.093,122.646v1.191c0,42.271-8.932,79.183-35.126,101.212Zm-72.04-30.959h7.144c35.126,0,40.486-30.959,40.486-70.253v-1.191c0-39.295-6.549-70.849-38.104-70.849h-9.527v142.293Z"/>
</svg>