<?xml version="1.0" encoding="UTF-8"?>
<svg fill="white" id="a" data-name="Layer 1" xmlns="http://www.w3.org/2000/svg" width="1562.598" height="1080" viewBox="0 0 1562.598 1080">
  <g>
    <path d="m91.864,367.886v242.407l.948,69.395H0l.946-69.395V69.395L0,0h223.504v82.703H91.864v199.629h104.176v85.554h-104.176Z"/>
    <path d="m371.233,0l-.948,69.395v540.898l.948,69.395h-92.811l.946-69.395V69.395l-.946-69.395h92.811Z"/>
    <path d="m463.086,679.687l.946-69.395V69.395l-.946-69.395h92.811l-.948,69.395v527.59h121.223v82.703h-213.086Z"/>
    <path d="m845.694,82.703v527.59l.946,69.395h-92.811l.948-69.395V82.703h-85.234V0h261.386v82.703h-85.234Z"/>
    <path d="m1083.397,367.886v229.098h135.429v82.703h-227.293l.946-69.395V69.395l-.946-69.395h223.504v82.703h-131.641v199.629h104.176v85.554h-104.176Z"/>
    <path d="m1497.251,359.332l65.346,320.355h-97.545l-53.984-288.986h-28.411v219.591l.948,69.395h-92.811l.946-69.395V69.395l-.946-69.395h117.434c116.486,0,144.899,88.407,144.899,195.826v1.901c0,67.493-14.205,126.431-55.876,161.605Zm-114.594-49.432h11.364c55.876,0,64.4-49.432,64.4-112.173v-1.901c0-62.741-10.416-113.123-60.611-113.123h-15.153v227.197Z"/>
  </g>
  <g>
    <path d="m49.514,906.444v130.167l.51,37.264H0l.51-37.264v-290.451l-.51-37.264h120.467v44.41H49.514v107.197h56.15v45.941h-56.15Z"/>
    <path d="m171.508,1060.603c-14.803-17.356-22.971-41.348-22.971-110.26v-117.916c0-68.912,8.168-92.904,22.971-110.259,10.72-12.251,26.543-19.398,47.472-19.398s36.753,7.146,47.474,19.398c14.803,17.355,22.971,41.347,22.971,110.259v117.916c0,68.912-8.168,92.904-22.971,110.26-10.72,12.251-26.545,19.397-47.474,19.397s-36.752-7.146-47.472-19.397Zm27.055-99.54c0,46.963.51,71.465,20.417,71.465s20.419-24.502,20.419-71.465v-139.355c0-46.962-.51-71.464-20.419-71.464s-20.417,24.502-20.417,71.464v139.355Z"/>
    <path d="m446.134,901.85l35.222,172.024h-52.578l-29.095-155.18h-15.315v117.916l.51,37.264h-50.024l.51-37.264v-290.451l-.51-37.264h63.297c62.787,0,78.099,47.473,78.099,105.154v1.021c0,36.243-7.656,67.891-30.116,86.779Zm-61.766-26.544h6.126c30.117,0,34.711-26.544,34.711-60.235v-1.021c0-33.69-5.616-60.745-32.669-60.745h-8.168v122Z"/>
    <path d="m518.612,1036.611v-290.451l-.51-37.264h68.401l25.013,191.422c2.042,15.314,3.572,33.18,4.084,45.942h2.042c1.02-12.762,2.552-30.628,4.594-45.942l25.011-191.422h67.381l-.51,37.264v290.451l.51,37.264h-44.41l.51-37.264v-185.807c0-14.293,1.022-33.69,1.532-46.962h-2.042c-1.02,13.272-3.062,32.158-5.104,45.941l-30.117,224.092h-37.774l-30.117-224.092c-2.042-13.783-3.574-32.669-4.594-45.941h-2.042c.51,13.272,1.532,32.669,1.532,46.962v185.807l.51,37.264h-44.41l.51-37.264Z"/>
    <path d="m795.273,1073.875h-50.534l46.962-364.978h67.891l46.452,364.978h-50.026l-8.677-81.673h-43.39l-8.678,81.673Zm13.272-127.104h34.201l-11.741-111.791c-1.532-16.335-3.574-47.983-4.084-60.234h-2.042c-1.02,12.251-3.062,43.899-4.594,60.234l-11.741,111.791Z"/>
    <path d="m1004.564,753.306v283.305l.512,37.264h-50.026l.51-37.264v-283.305h-45.94v-44.41h140.886v44.41h-45.942Z"/>
    <path d="m1163.823,753.306v283.305l.512,37.264h-50.026l.51-37.264v-283.305h-45.94v-44.41h140.886v44.41h-45.942Z"/>
    <path d="m1291.945,906.444v123.021h72.995v44.41h-122.509l.51-37.264v-290.451l-.51-37.264h120.469v44.41h-70.955v107.197h56.15v45.941h-56.15Z"/>
    <path d="m1515.013,901.85l35.222,172.024h-52.578l-29.095-155.18h-15.315v117.916l.51,37.264h-50.024l.51-37.264v-290.451l-.51-37.264h63.297c62.787,0,78.099,47.473,78.099,105.154v1.021c0,36.243-7.656,67.891-30.116,86.779Zm-61.766-26.544h6.126c30.117,0,34.711-26.544,34.711-60.235v-1.021c0-33.69-5.616-60.745-32.669-60.745h-8.168v122Z"/>
  </g>
</svg>