<?xml version="1.0" encoding="UTF-8"?>
<svg fill="white" id="a" data-name="Layer 1" xmlns="http://www.w3.org/2000/svg" width="1920" height="769.444" viewBox="0 0 1920 769.444">
  <path d="m141.074,252.38l44.652,218.083h-66.654l-36.887-196.727h-19.413v149.487l.646,47.241H0l.647-47.241V55.005L0,7.766h80.244c79.597,0,99.011,60.183,99.011,133.308v1.295c0,45.945-9.707,86.069-38.182,110.011Zm-78.302-33.649h7.766c38.18,0,44.005-33.652,44.005-76.362v-1.295c0-42.71-7.118-77.008-41.416-77.008h-10.354v154.665Z"/>
  <path d="m295.084,258.204v155.959h92.539v56.3h-155.311l.647-47.241V55.005l-.647-47.239h152.723v56.3h-89.951v135.897h71.184v58.242h-71.184Z"/>
  <path d="m479.51,470.463h-64.067L474.979,7.766h86.069l58.888,462.697h-63.418l-11.002-103.541h-55.006l-11,103.541Zm16.825-161.136h43.357l-14.884-141.721c-1.941-20.708-4.53-60.831-5.177-76.362h-2.589c-1.294,15.531-3.883,55.654-5.824,76.362l-14.884,141.721Z"/>
  <path d="m773.306,311.27h63.418v1.94c0,86.07-11.648,118.427-30.415,140.427-13.59,15.531-33.651,24.59-60.183,24.59s-46.593-9.059-60.182-24.59c-18.767-22-29.121-52.418-29.121-139.78v-149.487c0-87.362,10.354-117.777,29.121-139.78,13.589-15.531,33.649-24.59,60.182-24.59s46.593,9.059,60.183,24.59c18.12,21.356,29.121,49.829,29.121,130.073v1.941h-63.419v-5.823c0-58.89-.647-90.599-25.885-90.599s-25.885,31.71-25.885,90.599v176.667c0,58.887.647,90.597,25.885,90.597s27.18-32.357,27.18-91.892v-14.884Z"/>
  <path d="m981.03,64.065v359.156l.646,47.241h-63.418l.647-47.241V64.065h-58.242V7.766h178.608v56.3h-58.241Z"/>
  <path d="m1144.103,7.766l-.647,47.239v368.217l.647,47.241h-63.419l.647-47.241V55.005l-.647-47.239h63.419Z"/>
  <path d="m1179.692,7.766h64.713l31.71,261.44c2.589,19.413,4.53,49.828,5.177,66.007h2.589c.647-16.179,3.236-46.593,5.824-66.007l31.71-261.44h62.771l-67.301,462.697h-69.89L1179.692,7.766Z"/>
  <path d="m1483.195,7.766l-.647,47.239v368.217l.647,47.241h-63.419l.647-47.241V55.005l-.647-47.239h63.419Z"/>
  <path d="m1644.975,64.065v359.156l.646,47.241h-63.418l.647-47.241V64.065h-58.242V7.766h178.608v56.3h-58.241Z"/>
  <path d="m1819.695,179.254h2.589l36.887-171.488h60.83l-68.595,273.089v142.367l.646,47.241h-63.418l.647-47.241v-142.367L1720.684,7.766h62.772l36.239,171.488Z"/>
  <path d="m0,595.158c0-48.513,5.75-65.402,16.171-77.62,7.546-8.624,18.686-13.655,33.419-13.655s25.873,5.031,33.42,13.655c10.062,11.859,16.171,27.67,16.171,72.23v1.078h-35.217v-3.234c0-32.702-.36-50.31-14.374-50.31s-14.374,17.609-14.374,50.31v98.104c0,32.341,0,50.309,14.734,50.309,16.171,0,17.609-21.561,17.609-57.856v-12.936h-16.531v-32.342h50.31v132.242h-16.17l-7.547-21.561h-.719c-6.828,17.249-16.53,25.154-30.904,25.154-11.859,0-22.28-4.673-29.826-12.937-10.781-12.217-16.171-29.108-16.171-77.62v-83.011Z"/>
  <path d="m156.673,765.132h-35.576l33.061-256.938h47.794l32.701,256.938h-35.216l-6.109-57.497h-30.545l-6.109,57.497Zm9.344-89.479h24.077l-8.265-78.698c-1.078-11.499-2.515-33.78-2.875-42.404h-1.437c-.719,8.624-2.156,30.905-3.234,42.404l-8.265,78.698Z"/>
  <path d="m334.553,644.03l24.795,121.102h-37.013l-20.483-109.244h-10.78v83.011l.36,26.233h-35.217l.36-26.233v-204.473l-.36-26.232h44.56c44.2,0,54.981,33.42,54.981,74.027v.719c0,25.513-5.39,47.794-21.201,61.09Zm-43.482-18.686h4.312c21.202,0,24.436-18.687,24.436-42.404v-.719c0-23.717-3.953-42.763-22.999-42.763h-5.75v85.886Z"/>
  <path d="m385.218,765.132l.358-26.233v-204.473l-.358-26.232h42.763c36.294,0,54.622,25.154,54.622,63.965v.719c0,28.029-8.266,47.074-22.999,56.778v1.438c16.53,8.984,26.951,29.466,26.951,58.574v.719c0,48.872-20.483,74.746-57.856,74.746h-43.481Zm34.856-149.851h7.907c15.092,0,19.764-16.53,19.764-39.529v-.719c0-22.28-6.469-35.576-22.639-35.576h-5.032v75.824Zm5.75,118.587c19.764,0,24.796-15.812,24.796-44.92v-.718c0-26.233-6.109-41.326-22.281-41.326h-8.265v86.964h5.75Z"/>
  <path d="m536.146,765.132h-35.575l33.06-256.938h47.795l32.7,256.938h-35.217l-6.109-57.497h-30.545l-6.109,57.497Zm9.344-89.479h24.077l-8.266-78.698c-1.077-11.499-2.515-33.78-2.873-42.404h-1.438c-.719,8.624-2.156,30.905-3.234,42.404l-8.265,78.698Z"/>
  <path d="m634.609,595.158c0-48.513,5.75-65.402,16.17-77.62,7.547-8.624,18.687-13.655,33.421-13.655s25.873,5.031,33.419,13.655c10.063,11.859,16.17,27.67,16.17,72.23v1.078h-35.216v-3.234c0-32.702-.36-50.31-14.374-50.31s-14.374,17.609-14.374,50.31v98.104c0,32.341,0,50.309,14.732,50.309,16.172,0,17.609-21.561,17.609-57.856v-12.936h-16.53v-32.342h50.31v132.242h-16.172l-7.546-21.561h-.719c-6.827,17.249-16.53,25.154-30.904,25.154-11.859,0-22.28-4.673-29.827-12.937-10.78-12.217-16.17-29.108-16.17-77.62v-83.011Z"/>
  <path d="m802.421,647.264v86.604h51.387v31.264h-86.245l.36-26.233v-204.473l-.36-26.232h84.808v31.264h-49.951v75.464h39.53v32.342h-39.53Z"/>
  <path d="m943.647,676.732h35.217v1.077c0,47.795-6.469,65.763-16.889,77.98-7.546,8.624-18.687,13.655-33.419,13.655s-25.873-5.031-33.421-13.655c-10.421-12.217-16.17-29.108-16.17-77.62v-83.011c0-48.513,5.75-65.402,16.17-77.62,7.547-8.624,18.687-13.655,33.421-13.655s25.873,5.031,33.419,13.655c10.061,11.859,16.17,27.67,16.17,72.23v1.078h-35.216v-3.234c0-32.702-.36-50.31-14.374-50.31s-14.374,17.609-14.374,50.31v98.104c0,32.7.358,50.309,14.374,50.309s15.092-17.968,15.092-51.028v-8.265Z"/>
  <path d="m1021.623,755.789c-10.421-12.217-16.17-29.108-16.17-77.62v-83.011c0-48.513,5.75-65.402,16.17-77.62,7.547-8.624,18.687-13.655,33.421-13.655s25.873,5.031,33.419,13.655c10.421,12.218,16.17,29.108,16.17,77.62v83.011c0,48.513-5.75,65.404-16.17,77.62-7.546,8.624-18.686,13.655-33.419,13.655s-25.873-5.031-33.421-13.655Zm19.047-70.073c0,33.06.36,50.309,14.374,50.309s14.374-17.249,14.374-50.309v-98.104c0-33.061-.36-50.31-14.374-50.31s-14.374,17.249-14.374,50.31v98.104Z"/>
  <path d="m1136.613,765.132l.36-26.233v-204.473l-.36-26.232h35.217l-.36,26.232v199.442h45.997v31.264h-80.855Z"/>
  <path d="m1240.465,765.132l.36-26.233v-204.473l-.36-26.232h35.217l-.36,26.232v199.442h45.997v31.264h-80.855Z"/>
  <path d="m1379.176,647.264v86.604h51.389v31.264h-86.245l.358-26.233v-204.473l-.358-26.232h84.807v31.264h-49.951v75.464h39.53v32.342h-39.53Z"/>
  <path d="m1520.401,676.732h35.217v1.077c0,47.795-6.469,65.763-16.889,77.98-7.546,8.624-18.687,13.655-33.419,13.655s-25.873-5.031-33.421-13.655c-10.421-12.217-16.17-29.108-16.17-77.62v-83.011c0-48.513,5.75-65.402,16.17-77.62,7.547-8.624,18.687-13.655,33.421-13.655s25.873,5.031,33.419,13.655c10.061,11.859,16.17,27.67,16.17,72.23v1.078h-35.216v-3.234c0-32.702-.36-50.31-14.374-50.31s-14.374,17.609-14.374,50.31v98.104c0,32.7.358,50.309,14.374,50.309s15.092-17.968,15.092-51.028v-8.265Z"/>
  <path d="m1635.753,539.458v199.441l.36,26.233h-35.217l.36-26.233v-199.441h-32.342v-31.264h99.182v31.264h-32.342Z"/>
  <path d="m1701.874,755.789c-10.421-12.217-16.17-29.108-16.17-77.62v-83.011c0-48.513,5.75-65.402,16.17-77.62,7.547-8.624,18.687-13.655,33.421-13.655s25.873,5.031,33.419,13.655c10.421,12.218,16.17,29.108,16.17,77.62v83.011c0,48.513-5.75,65.404-16.17,77.62-7.546,8.624-18.686,13.655-33.419,13.655s-25.873-5.031-33.421-13.655Zm19.047-70.073c0,33.06.36,50.309,14.374,50.309s14.374-17.249,14.374-50.309v-98.104c0-33.061-.36-50.31-14.374-50.31s-14.374,17.249-14.374,50.31v98.104Z"/>
  <path d="m1895.204,644.03l24.796,121.102h-37.013l-20.483-109.244h-10.782v83.011l.36,26.233h-35.217l.36-26.233v-204.473l-.36-26.232h44.561c44.201,0,54.981,33.42,54.981,74.027v.719c0,25.513-5.39,47.794-21.202,61.09Zm-43.482-18.686h4.313c21.202,0,24.435-18.687,24.435-42.404v-.719c0-23.717-3.952-42.763-22.999-42.763h-5.75v85.886Z"/>
</svg>