<?xml version="1.0" encoding="UTF-8"?>
<svg fill="white" id="a" data-name="Layer 1" xmlns="http://www.w3.org/2000/svg" width="1918.742" height="336.651" viewBox="0 0 1918.742 336.651">
  <path d="m126.187,5.466l-.456,33.255v259.207l.456,33.255h-44.644l.456-33.255v-116.165h-37.811v116.165l.456,33.255H0l.456-33.255V38.722L0,5.466h44.644l-.456,33.255v102.043h37.811V38.722l-.456-33.255h44.644Z"/>
  <path d="m198.165,331.184h-45.099L194.976,5.466h60.588l41.455,325.718h-44.644l-7.744-72.888h-38.722l-7.744,72.888Zm11.844-113.432h30.522l-10.477-99.765c-1.367-14.578-3.189-42.822-3.645-53.755h-1.822c-.911,10.933-2.733,39.177-4.1,53.755l-10.477,99.765Z"/>
  <path d="m423.661,177.664l31.433,153.52h-46.921l-25.966-138.487h-13.667v105.232l.456,33.255h-44.644l.456-33.255V38.722l-.456-33.255h56.488c56.033,0,69.699,42.366,69.699,93.843v.911c0,32.344-6.833,60.588-26.878,77.443Zm-55.121-23.688h5.467c26.878,0,30.977-23.689,30.977-53.755v-.911c0-30.066-5.011-54.21-29.155-54.21h-7.289v108.876Z"/>
  <path d="m552.579,5.466c16.855,0,30.521,5.922,40.544,17.311,14.122,16.4,20.044,39.177,20.044,93.843v103.41c0,54.666-5.922,77.443-20.044,93.844-10.022,11.388-23.689,17.311-40.544,17.311h-64.688l.456-33.255V38.722l-.456-33.255h64.688Zm-8.2,286.085c22.778,0,24.144-27.333,24.144-59.678v-127.098c0-32.344-1.366-59.677-24.144-59.677h-12.3v246.452h12.3Z"/>
  <path d="m734.34,219.119h44.644v1.367c0,60.588-8.199,83.366-21.411,98.854-9.566,10.933-23.688,17.311-42.366,17.311s-32.799-6.377-42.367-17.311c-13.211-15.489-20.499-36.9-20.499-98.399v-105.232c0-61.499,7.288-82.91,20.499-98.398,9.567-10.933,23.689-17.311,42.367-17.311s32.799,6.377,42.366,17.311c12.755,15.033,20.5,35.077,20.5,91.566v1.367h-44.644v-4.1c0-41.455-.455-63.777-18.222-63.777s-18.222,22.322-18.222,63.777v124.365c0,41.455.455,63.777,18.222,63.777s19.133-22.778,19.133-64.688v-10.477Z"/>
  <path d="m833.188,319.34c-13.211-15.489-20.499-36.9-20.499-98.399v-105.232c0-61.499,7.288-82.91,20.499-98.398,9.567-10.933,23.689-17.311,42.367-17.311s32.799,6.377,42.366,17.311c13.211,15.489,20.5,36.899,20.5,98.398v105.232c0,61.499-7.288,82.91-20.5,98.399-9.566,10.933-23.688,17.311-42.366,17.311s-32.799-6.377-42.367-17.311Zm24.145-88.832c0,41.911.455,63.777,18.222,63.777s18.222-21.867,18.222-63.777v-124.365c0-41.911-.455-63.777-18.222-63.777s-18.222,21.866-18.222,63.777v124.365Z"/>
  <path d="m1078.274,177.664l31.433,153.52h-46.922l-25.966-138.487h-13.667v105.232l.455,33.255h-44.644l.456-33.255V38.722l-.456-33.255h56.488c56.032,0,69.699,42.366,69.699,93.843v.911c0,32.344-6.833,60.588-26.877,77.443Zm-55.121-23.688h5.466c26.877,0,30.977-23.689,30.977-53.755v-.911c0-30.066-5.011-54.21-29.155-54.21h-7.288v108.876Z"/>
  <path d="m1186.691,181.764v109.788h65.144v39.633h-109.332l.456-33.255V38.722l-.456-33.255h107.51v39.633h-63.321v95.665h50.11v41h-50.11Z"/>
  <path d="m1412.638,5.466l-.455,33.255v259.207l.455,33.255h-44.644l.456-33.255v-116.165h-37.81v116.165l.455,33.255h-44.644l.456-33.255V38.722l-.456-33.255h44.644l-.455,33.255v102.043h37.81V38.722l-.456-33.255h44.644Z"/>
  <path d="m1526.527,45.099v252.83l.456,33.255h-44.644l.455-33.255V45.099h-41V5.466h125.732v39.633h-41Z"/>
  <path d="m1597.135,297.929V38.722l-.456-33.255h61.043l22.322,170.831c1.822,13.667,3.189,29.611,3.645,40.999h1.822c.911-11.388,2.277-27.333,4.099-40.999l22.323-170.831h60.132l-.456,33.255v259.207l.456,33.255h-39.633l.456-33.255v-165.82c0-12.755.911-30.066,1.367-41.911h-1.823c-.911,11.844-2.733,28.7-4.555,41l-26.877,199.986h-33.711l-26.877-199.986c-1.822-12.3-3.189-29.155-4.1-41h-1.822c.456,11.844,1.367,29.155,1.367,41.911v165.82l.455,33.255h-39.633l.456-33.255Z"/>
  <path d="m1816.243,331.184l.456-33.255V38.722l-.456-33.255h44.644l-.455,33.255v252.83h58.31v39.633h-102.499Z"/>
</svg>